<?xml version="1.0" standalone="no"?>
<!DOCTYPE svg PUBLIC "-//W3C//DTD SVG 20010904//EN"
 "http://www.w3.org/TR/2001/REC-SVG-20010904/DTD/svg10.dtd">
<svg version="1.0" xmlns="http://www.w3.org/2000/svg"
 width="484.000000pt" height="265.000000pt" viewBox="0 0 484.000000 265.000000"
 preserveAspectRatio="xMidYMid meet">

<g transform="translate(0.000000,265.000000) scale(0.100000,-0.100000)"
fill="#000000" stroke="none">
<path d="M0 1325 l0 -1325 2420 0 2420 0 0 1325 0 1325 -2420 0 -2420 0 0
-1325z m4220 -100 l0 -465 -1827 2 -1828 3 -3 463 -2 462 1830 0 1830 0 0
-465z"/>
<path d="M590 1220 l0 -440 1805 0 1805 0 0 440 0 440 -1805 0 -1805 0 0 -440z
m2084 380 c36 -13 66 -67 66 -116 0 -86 -71 -140 -157 -118 -74 18 -107 119
-63 192 30 48 93 66 154 42z m686 -10 c0 -18 -7 -20 -60 -20 l-60 0 0 -35 0
-35 55 0 c48 0 55 -2 55 -20 0 -18 -7 -20 -55 -20 -54 0 -55 0 -55 -30 l0 -30
60 0 c53 0 60 -2 60 -20 0 -18 -7 -20 -85 -20 l-85 0 0 125 0 125 85 0 c78 0
85 -2 85 -20z m219 7 c13 -6 30 -22 38 -34 13 -19 12 -23 -7 -33 -17 -9 -24
-8 -39 11 -12 15 -29 22 -51 22 -88 0 -95 -138 -8 -159 21 -4 33 0 53 20 22
22 30 24 46 15 18 -9 19 -13 6 -32 -46 -70 -171 -59 -203 18 -17 41 -18 71 -3
114 21 59 108 89 168 58z m270 -13 c36 -30 39 -49 11 -57 -13 -3 -24 1 -30 13
-13 24 -55 33 -83 19 -31 -17 -37 -28 -37 -74 0 -46 6 -57 37 -74 28 -14 70
-5 83 19 6 12 17 16 30 13 28 -8 25 -27 -11 -57 -47 -40 -110 -37 -155 8 -31
31 -34 40 -34 91 0 51 3 60 34 91 45 45 108 48 155 8z m-1609 -104 l0 -120
-25 0 -25 0 0 100 0 100 -50 0 -50 0 0 -100 0 -100 -25 0 -25 0 0 120 0 120
100 0 100 0 0 -120z m211 102 c52 -43 15 -122 -57 -122 l-34 0 0 -50 c0 -47
-2 -50 -25 -50 l-25 0 0 120 0 120 59 0 c42 0 65 -5 82 -18z m489 -2 c0 -17
-7 -20 -50 -20 l-50 0 0 -100 0 -100 -25 0 -25 0 0 120 0 120 75 0 c68 0 75
-2 75 -20z m188 0 c50 -47 14 -120 -58 -120 l-40 0 0 -50 c0 -47 -2 -50 -25
-50 l-25 0 0 120 0 120 63 0 c50 0 68 -4 85 -20z m-1969 -52 c6 -18 13 -52 17
-76 5 -35 10 -42 23 -36 9 4 33 9 54 12 37 4 37 4 38 51 1 79 17 95 18 19 l1
-68 54 0 55 0 17 60 c9 33 21 60 25 60 15 0 10 -54 -9 -92 l-19 -36 52 -19 52
-19 19 34 c10 20 27 40 36 46 32 19 32 -4 0 -48 l-32 -44 34 -26 c19 -14 39
-26 45 -26 5 0 22 16 37 35 25 33 54 47 54 25 0 -5 -16 -27 -35 -48 l-34 -39
37 -36 37 -35 35 29 c56 47 73 32 20 -18 -16 -15 -30 -36 -30 -46 0 -30 -26
-69 -77 -118 -87 -84 -201 -126 -408 -149 -180 -20 -321 1 -433 67 -56 32
-207 179 -193 187 17 11 66 -20 91 -58 l24 -34 24 41 c13 23 49 68 79 99 l57
57 -27 53 c-29 56 -32 68 -19 68 4 0 20 -25 35 -55 l27 -54 50 31 c49 30 50
32 44 67 -4 20 -11 46 -15 59 -11 30 -11 42 0 42 11 0 28 -43 36 -91 l7 -37
51 21 c29 12 53 22 55 23 2 1 -6 32 -17 69 -24 75 -25 85 -12 85 5 0 14 -15
20 -32z m-355 -303 c30 -46 16 -49 -29 -5 -24 24 -42 47 -39 52 7 11 49 -18
68 -47z m1351 20 c26 -25 31 -50 16 -74 -6 -10 -5 -22 5 -35 50 -71 -42 -145
-131 -104 -29 13 -31 21 -10 38 12 10 18 10 29 0 19 -15 56 -9 69 12 14 22 -7
48 -39 48 -36 0 -33 38 4 42 35 4 44 43 12 53 -12 4 -27 2 -33 -4 -14 -14 -57
-14 -57 -1 0 6 9 19 20 30 29 29 84 27 115 -5z m465 5 c0 -18 -7 -20 -60 -20
l-60 0 0 -35 0 -35 55 0 c48 0 55 -2 55 -20 0 -18 -7 -20 -55 -20 -54 0 -55 0
-55 -30 l0 -30 60 0 c53 0 60 -2 60 -20 0 -18 -7 -20 -85 -20 l-85 0 0 125 0
125 85 0 c78 0 85 -2 85 -20z m110 -35 l0 -55 50 0 50 0 0 55 c0 52 1 55 25
55 l25 0 0 -125 0 -125 -25 0 c-23 0 -25 3 -25 50 l0 50 -50 0 -50 0 0 -50 c0
-47 -2 -50 -25 -50 l-25 0 0 125 0 125 25 0 c24 0 25 -3 25 -55z m260 -27 l1
-83 47 82 c41 71 51 82 75 83 l27 0 0 -125 0 -125 -25 0 c-25 0 -25 1 -25 83
l-1 82 -47 -82 c-41 -72 -51 -83 -74 -83 l-28 0 0 125 0 125 25 0 c25 0 25 -1
25 -82z m380 -43 l0 -125 -25 0 c-23 0 -25 3 -25 50 0 36 -4 50 -14 50 -8 0
-28 -22 -45 -50 -24 -39 -37 -50 -56 -50 -14 0 -25 2 -25 5 0 2 13 26 30 52
l30 47 -20 21 c-27 29 -26 79 2 105 17 16 35 20 85 20 l63 0 0 -125z m-986 94
c54 -43 16 -119 -60 -119 l-34 0 0 -50 c0 -47 -2 -50 -25 -50 l-25 0 0 120 0
120 59 0 c44 0 65 -5 85 -21z m-299 -389 c20 0 29 -20 16 -33 -9 -9 -11 -8 -6
6 5 11 2 17 -8 17 -9 0 -18 -8 -20 -17 -3 -10 -5 0 -5 22 0 22 2 32 5 23 2
-10 11 -18 18 -18z m47 -32 c-6 -6 -7 0 -4 19 5 21 7 23 10 9 2 -10 0 -22 -6
-28z m96 14 c3 -16 -2 -22 -17 -22 -29 0 -37 20 -10 27 22 6 22 7 3 15 -18 8
-18 8 1 5 12 -1 21 -11 23 -25z m19 -9 c-3 -10 -5 -4 -5 12 0 17 2 24 5 18 2
-7 2 -21 0 -30z m71 30 c-10 -2 -18 -11 -18 -18 0 -7 8 -16 18 -18 13 -4 11
-5 -5 -6 -18 -1 -23 4 -23 24 0 20 5 25 23 24 16 -1 18 -2 5 -6z m49 -30 c-3
-10 -5 -4 -5 12 0 17 2 24 5 18 2 -7 2 -21 0 -30z m54 17 c6 0 7 5 4 10 -3 6
-1 10 4 10 6 0 11 -11 11 -25 0 -14 -5 -25 -11 -25 -5 0 -7 5 -4 10 3 6 2 10
-4 10 -5 0 -12 -6 -14 -12 -3 -7 -5 1 -5 17 0 17 2 24 5 18 2 -7 9 -13 14 -13z
m79 -5 c0 -18 -5 -25 -19 -25 -11 0 -23 5 -26 10 -11 18 3 40 25 40 15 0 20
-7 20 -25z m68 2 c2 -10 -4 -20 -15 -24 -10 -4 -21 -11 -25 -17 -4 -6 -8 6 -8
27 0 34 3 38 22 35 13 -2 24 -11 26 -21z m35 3 c3 -11 1 -23 -4 -26 -5 -3 -9
6 -9 20 0 31 6 34 13 6z m27 -7 c-1 -24 -2 -26 -11 -10 -5 9 -7 22 -4 27 10
17 15 11 15 -17z m110 12 c0 -8 -8 -15 -17 -16 -15 0 -15 -2 2 -9 19 -8 19 -9
-2 -9 -18 -1 -23 5 -23 24 0 18 5 25 20 25 11 0 20 -7 20 -15z m27 -22 c-3
-10 -5 -4 -5 12 0 17 2 24 5 18 2 -7 2 -21 0 -30z m30 0 c-3 -10 -5 -4 -5 12
0 17 2 24 5 18 2 -7 2 -21 0 -30z m63 -5 c0 -5 -5 -8 -11 -8 -5 0 -7 5 -4 10
3 6 2 10 -4 10 -5 0 -12 -6 -14 -12 -3 -7 -6 -1 -6 14 -1 27 0 27 19 11 11
-10 20 -21 20 -25z m50 32 c7 12 10 8 10 -15 0 -23 -3 -27 -10 -15 -9 13 -11
13 -20 0 -7 -12 -10 -8 -10 15 0 23 3 27 10 15 9 -13 11 -13 20 0z m58 3 c-10
-2 -18 -11 -18 -18 0 -7 8 -16 18 -18 13 -4 11 -5 -5 -6 -18 -1 -23 4 -23 24
0 20 5 25 23 24 16 -1 18 -2 5 -6z m57 -1 l-20 -5 20 -8 20 -8 -20 -1 -20 -1
20 -9 c16 -7 17 -9 3 -9 -9 -1 -20 4 -23 9 -11 17 3 40 22 39 15 -1 15 -2 -2
-7z m173 -9 c2 -8 -6 -13 -20 -14 -22 0 -22 -1 -3 -9 16 -7 17 -9 3 -9 -21 -1
-32 15 -24 35 7 18 37 15 44 -3z m32 -13 c5 0 11 8 13 18 3 10 5 6 6 -11 1
-25 -1 -27 -19 -17 -11 6 -19 18 -19 28 1 16 2 16 6 0 2 -10 8 -18 13 -18z
m65 22 l-20 -5 20 -8 20 -8 -20 -1 -20 -1 20 -9 c16 -7 17 -9 3 -9 -9 -1 -20
4 -23 9 -11 17 3 40 22 39 15 -1 15 -2 -2 -7z m60 -12 c7 0 16 6 18 13 3 6 5
-1 5 -18 0 -16 -2 -24 -5 -17 -2 6 -11 12 -18 12 -7 0 -16 -6 -18 -12 -3 -7
-5 1 -5 17 0 17 2 24 5 18 2 -7 11 -13 18 -13z m58 0 c3 -11 1 -23 -4 -26 -5
-3 -9 6 -9 20 0 31 6 34 13 6z m27 -7 c-1 -24 -2 -26 -11 -10 -5 9 -7 22 -4
27 10 17 15 11 15 -17z m45 19 l-20 -5 20 -8 20 -8 -20 -1 -20 -1 20 -9 c16
-7 17 -9 3 -9 -9 -1 -20 4 -23 9 -11 17 3 40 22 39 15 -1 15 -2 -2 -7z m101
-14 c1 -10 -3 -21 -8 -25 -7 -3 -8 -1 -4 5 4 7 1 12 -6 12 -10 0 -10 2 1 9 11
7 10 10 -5 14 -19 6 -19 6 0 4 11 -1 20 -10 22 -19z m52 15 c-10 -2 -18 -11
-18 -19 0 -8 8 -14 18 -15 13 0 14 -2 2 -6 -8 -3 -18 -11 -22 -17 -4 -6 -8 6
-8 27 0 32 3 37 23 36 16 -1 18 -2 5 -6z m57 -1 l-20 -5 20 -8 20 -8 -20 -1
-20 -1 20 -9 c16 -7 17 -9 3 -9 -9 -1 -20 4 -23 9 -11 17 3 40 22 39 15 -1 15
-2 -2 -7z m60 -12 c7 0 16 6 18 13 3 6 5 -1 5 -18 0 -16 -2 -24 -5 -17 -2 6
-11 12 -18 12 -7 0 -16 -6 -18 -12 -3 -7 -5 1 -5 17 0 17 2 24 5 18 2 -7 11
-13 18 -13z m58 0 c3 -11 1 -23 -4 -26 -5 -3 -9 6 -9 20 0 31 6 34 13 6z m27
-7 c-1 -24 -2 -26 -11 -10 -5 9 -7 22 -4 27 10 17 15 11 15 -17z m34 12 c-4
-10 0 -15 12 -15 16 0 17 -2 4 -10 -16 -10 -36 13 -25 30 9 15 15 12 9 -5z
m-777 -27 c-3 -8 -6 -5 -6 6 -1 11 2 17 5 13 3 -3 4 -12 1 -19z"/>
<path d="M2571 1544 c-12 -15 -21 -41 -21 -59 0 -40 34 -85 65 -85 12 0 33 9
46 19 19 15 24 29 24 66 0 37 -5 51 -24 66 -33 27 -66 24 -90 -7z"/>
<path d="M2360 1530 c0 -25 4 -30 24 -30 33 0 53 25 36 45 -7 8 -23 15 -36 15
-20 0 -24 -5 -24 -30z"/>
<path d="M3030 1530 c0 -23 5 -30 19 -30 32 0 51 11 51 30 0 19 -19 30 -51 30
-14 0 -19 -7 -19 -30z"/>
<path d="M1411 1363 c20 -22 42 -57 49 -77 32 -98 -46 -260 -136 -282 -41 -10
-110 2 -142 25 -17 12 -43 47 -58 78 -34 69 -39 168 -11 221 10 17 15 32 12
32 -3 0 -40 -17 -82 -37 -78 -39 -166 -109 -216 -172 -30 -38 -61 -91 -55 -96
2 -1 26 -14 53 -28 81 -40 174 -67 255 -74 144 -11 380 30 488 84 48 24 152
122 152 143 0 14 -112 111 -174 152 -33 21 -77 43 -98 49 -22 5 -47 13 -56 16
-9 4 -1 -12 19 -34z"/>
<path d="M1206 1369 c-21 -16 -26 -29 -26 -64 0 -83 82 -132 143 -85 22 17 27
29 27 65 0 88 -80 135 -144 84z"/>
<path d="M1222 1088 c-25 -25 -7 -48 38 -48 30 0 35 22 10 42 -26 21 -32 22
-48 6z"/>
<path d="M3257 1223 c-13 -12 -7 -51 9 -57 39 -15 54 -7 54 29 0 32 -3 35 -28
35 -16 0 -32 -3 -35 -7z"/>
<path d="M2290 1190 c0 -23 5 -30 19 -30 32 0 51 11 51 30 0 19 -19 30 -51 30
-14 0 -19 -7 -19 -30z"/>
<path d="M2198 823 c7 -3 16 -2 19 1 4 3 -2 6 -13 5 -11 0 -14 -3 -6 -6z"/>
<path d="M2460 835 c0 -8 7 -15 15 -15 8 0 15 7 15 15 0 8 -7 15 -15 15 -8 0
-15 -7 -15 -15z"/>
<path d="M2530 835 c0 -8 7 -15 15 -15 8 0 15 7 15 15 0 8 -7 15 -15 15 -8 0
-15 -7 -15 -15z"/>
<path d="M3168 843 c7 -3 16 -2 19 1 4 3 -2 6 -13 5 -11 0 -14 -3 -6 -6z"/>
</g>
</svg>
